HIERARCHY
ROOT Hips
{
 OFFSET 0.000000 0.000000 0.000000
 CHANNELS 6 Xposition Yposition Zposition Yrotation Xrotation Zrotation
 JOINT Chest
 {
  OFFSET 0.000000 9.585900 0.002600
  CHANNELS 3 Yrotation Xrotation Zrotation
  JOINT Chest2
  {
   OFFSET 0.000000 9.601200 -0.005300
   CHANNELS 3 Yrotation Xrotation Zrotation
   JOINT Chest3
   {
    OFFSET 0.000000 9.561800 0.000000
    CHANNELS 3 Yrotation Xrotation Zrotation
    JOINT Chest4
    {
     OFFSET 0.000000 9.552100 0.000000
     CHANNELS 3 Yrotation Xrotation Zrotation
     JOINT Neck
     {
      OFFSET 0.000000 14.453000 0.000000
      CHANNELS 3 Yrotation Xrotation Zrotation
      JOINT Head
      {
       OFFSET 0.000000 8.936500 -0.011300
       CHANNELS 3 Yrotation Xrotation Zrotation
       End Site
       {
        OFFSET 0.000000 17.073600 -0.006000
       }
      }
     }
     JOINT RightCollar
     {
      OFFSET -2.921100 9.558500 0.000000
      CHANNELS 3 Yrotation Xrotation Zrotation
      JOINT RightShoulder
      {
       OFFSET -13.519700 0.000000 0.000000
       CHANNELS 3 Yrotation Xrotation Zrotation
       JOINT RightElbow
       {
        OFFSET 0.000000 -29.696600 0.000000
        CHANNELS 3 Yrotation Xrotation Zrotation
        JOINT RightWrist
        {
         OFFSET 0.000000 -24.004700 0.000000
         CHANNELS 3 Yrotation Xrotation Zrotation
         End Site
         {
          OFFSET 0.000000 -17.728500 0.000000
         }
        }
       }
      }
     }
     JOINT LeftCollar
     {
      OFFSET 2.921100 9.558500 0.000000
      CHANNELS 3 Yrotation Xrotation Zrotation
      JOINT LeftShoulder
      {
       OFFSET 13.519700 0.000000 0.000000
       CHANNELS 3 Yrotation Xrotation Zrotation
       JOINT LeftElbow
       {
        OFFSET 0.000000 -29.696600 0.000000
        CHANNELS 3 Yrotation Xrotation Zrotation
        JOINT LeftWrist
        {
         OFFSET 0.000000 -24.004700 0.000000
         CHANNELS 3 Yrotation Xrotation Zrotation
         End Site
         {
          OFFSET 0.000000 -17.728500 0.000000
         }
        }
       }
      }
     }
    }
   }
  }
 }
 JOINT RightHip
 {
  OFFSET -7.771700 -0.012900 -0.001300
  CHANNELS 3 Yrotation Xrotation Zrotation
  JOINT RightKnee
  {
   OFFSET 0.000000 -40.869800 0.001200
   CHANNELS 3 Yrotation Xrotation Zrotation
   JOINT RightAnkle
   {
    OFFSET 0.000000 -39.717900 0.002100
    CHANNELS 3 Yrotation Xrotation Zrotation
    JOINT RightToe
    {
     OFFSET 0.000000 -4.965400 11.033500
     CHANNELS 3 Yrotation Xrotation Zrotation
     End Site
     {
      OFFSET 0.000000 -1.423100 5.872300
     }
    }
   }
  }
 }
 JOINT LeftHip
 {
  OFFSET 7.771700 -0.012900 -0.001300
  CHANNELS 3 Yrotation Xrotation Zrotation
  JOINT LeftKnee
  {
   OFFSET 0.000000 -40.869800 0.001200
   CHANNELS 3 Yrotation Xrotation Zrotation
   JOINT LeftAnkle
   {
    OFFSET 0.000000 -39.717900 0.002100
    CHANNELS 3 Yrotation Xrotation Zrotation
    JOINT LeftToe
    {
     OFFSET 0.000000 -4.965400 11.033500
     CHANNELS 3 Yrotation Xrotation Zrotation
     End Site
     {
      OFFSET 0.000000 -1.423100 5.872300
     }
    }
   }
  }
 }
}
MOTION
Frames: 15
Frame Time: 0.008333
-32.011283 55.988622 37.078823 -167.884269 -30.213494 -9.129640 -5.579594 14.575447 3.258413 -3.008876 8.283815 1.466198 -3.750512 10.388878 1.767741 -3.016567 8.285788 1.465448 1.707914 18.142153 -4.681934 2.987550 -6.510309 -5.447736 4.793177 -4.367878 -6.039842 3.666180 -19.210642 3.624227 58.273668 -35.689329 -40.102488 9.188941 -1.604070 -21.832858 -10.695179 -1.283279 -4.290873 -5.177559 -20.610224 1.536820 -45.609104 -34.985728 47.996917 -0.258687 -11.010284 0.170097 -23.125964 -30.069810 0.990139 22.059831 89.219174 18.904164 0.986830 -25.100525 -0.441311 -0.038849 0.850757 0.006327 -14.089216 -45.113193 2.459632 177.177842 73.685567 174.770201 -0.827851 -25.958724 0.978820 -0.042085 -0.808229 -0.005101
-32.015193 55.990477 37.072307 -167.871446 -30.204638 -9.132007 -5.580747 14.547668 3.257291 -3.008040 8.259261 1.463802 -3.746123 10.343853 1.762294 -3.020361 8.279422 1.462667 1.732330 18.213658 -4.674619 3.014864 -6.463490 -5.446467 4.785112 -4.290768 -5.918242 3.871220 -19.186190 3.619680 58.403637 -35.334636 -40.415187 9.214521 -1.607838 -22.073915 -10.702396 -1.175174 -4.304497 -5.208792 -20.590465 1.591391 -45.611777 -35.072765 48.022622 -0.251055 -10.976892 0.146242 -23.161124 -30.069178 1.022993 20.509986 89.229778 17.305408 0.970813 -25.114382 -0.421570 -0.036285 0.853201 0.014533 -14.098445 -45.114387 2.450398 177.190298 73.686154 174.781705 -0.818947 -25.964719 0.972977 -0.041708 -0.807712 -0.001601
-32.020198 55.993120 37.064544 -167.852738 -30.201849 -9.133848 -5.568156 14.477252 3.251561 -3.037678 8.313543 1.465149 -3.728828 10.265078 1.752841 -3.020420 8.257005 1.458744 1.754099 18.287859 -4.659088 3.024875 -6.408563 -5.437405 4.757559 -4.193945 -5.785660 4.045501 -19.136535 3.642719 58.622732 -35.028397 -40.873923 9.195602 -1.568903 -22.170813 -10.716572 -1.047810 -4.317250 -5.222697 -20.569445 1.628522 -45.622575 -35.136559 48.044173 -0.238393 -10.960887 0.131974 -23.155348 -30.064217 1.016903 19.818858 89.238184 16.609476 0.958377 -25.127164 -0.403517 -0.026023 0.846176 0.003905 -14.101901 -45.108823 2.433898 177.185597 73.687670 174.776330 -0.819297 -25.970020 0.972112 -0.039099 -0.808102 0.000131
-32.027394 55.996922 37.055176 -167.822463 -30.205776 -9.134714 -5.575494 14.437555 3.235441 -3.038673 8.293071 1.462350 -3.727905 10.229304 1.745728 -3.020212 8.232359 1.454690 1.777765 18.360045 -4.641463 3.000776 -6.350164 -5.417370 4.713855 -4.084692 -5.652021 4.151862 -19.063535 3.696223 58.938945 -34.780758 -41.415286 9.173277 -1.472374 -22.165562 -10.722839 -0.893076 -4.335979 -5.181250 -20.542561 1.638862 -45.712875 -35.211328 48.093847 -0.160725 -10.949444 0.119321 -23.126063 -30.049620 0.987955 19.932734 89.233806 16.731621 0.943066 -25.150389 -0.388713 -0.033530 0.852321 0.009541 -14.103765 -45.095276 2.404858 177.204195 73.691486 174.791138 -0.815121 -25.974039 0.975581 -0.038893 -0.809142 0.001410
-32.034067 56.001882 37.044877 -167.794074 -30.209847 -9.144656 -5.594652 14.432850 3.229811 -3.002999 8.178373 1.445534 -3.746162 10.248440 1.746629 -3.019785 8.204739 1.450455 1.830891 18.371096 -4.632378 2.996223 -6.215468 -5.383468 4.653962 -3.962040 -5.524076 4.150166 -18.979661 3.782315 59.349286 -34.594551 -41.959012 9.158395 -1.328097 -22.088009 -10.722203 -0.719175 -4.353765 -5.162538 -20.551394 1.629728 -45.774605 -35.280733 48.168617 -0.117768 -10.923714 0.075227 -23.097657 -30.032467 0.943720 21.126093 89.227075 17.960973 0.950102 -25.162965 -0.401437 -0.041881 0.850554 0.013033 -14.114130 -45.078063 2.390968 177.206014 73.693559 174.789524 -0.817079 -25.981369 0.982180 -0.036619 -0.809701 -0.000727
-32.040984 56.007418 37.035112 -167.766718 -30.204521 -9.157846 -5.598255 14.385211 3.225148 -2.997129 8.130904 1.435414 -3.750357 10.228277 1.742857 -3.018731 8.173985 1.445370 1.859857 18.397588 -4.619526 3.008843 -6.110951 -5.359716 4.604440 -3.824293 -5.441794 3.985335 -18.903490 3.932200 59.836377 -34.463520 -42.432907 9.148676 -1.163744 -21.965267 -10.718498 -0.534451 -4.373215 -5.138038 -20.560553 1.610619 -45.848577 -35.351451 48.256905 -0.094755 -10.894098 0.026079 -23.080495 -30.023889 0.901872 22.421614 89.218711 19.296014 0.961716 -25.166503 -0.412466 -0.045278 0.843101 0.006864 -14.131683 -45.069902 2.386255 177.199582 73.695187 174.779840 -0.821562 -25.986216 0.985590 -0.035668 -0.811902 0.000040
-32.048176 56.012619 37.027779 -167.727442 -30.176242 -9.176463 -5.612966 14.319510 3.220346 -2.999545 8.095776 1.426813 -3.748525 10.187379 1.735353 -3.017092 8.141237 1.439169 1.879023 18.431579 -4.606299 3.061845 -6.109143 -5.365102 4.550507 -3.678008 -5.356862 3.713586 -18.847914 4.078850 60.369595 -34.374652 -42.795032 9.152436 -0.991387 -21.829828 -10.723852 -0.337956 -4.390097 -5.092966 -20.574717 1.581887 -45.906976 -35.448408 48.405079 -0.100247 -10.857804 -0.094034 -23.094827 -30.035530 0.870577 23.237074 89.211290 20.144699 0.979708 -25.164655 -0.421654 -0.048008 0.835322 0.000014 -14.169069 -45.088010 2.390027 177.191303 73.696675 174.766715 -0.825014 -25.981806 0.990298 -0.037144 -0.817465 0.000216
-32.055510 56.020290 37.018493 -167.711080 -30.162680 -9.186584 -5.612489 14.263207 3.213919 -2.993512 8.061581 1.415008 -3.745591 10.146118 1.726543 -3.014585 8.108247 1.431849 1.893703 18.456413 -4.595488 3.087191 -6.102094 -5.365113 4.459272 -3.524741 -5.237313 3.428553 -18.831392 4.175607 60.914645 -34.300095 -43.040727 9.175395 -0.808732 -21.692282 -10.735711 -0.101039 -4.428101 -5.048959 -20.623640 1.577737 -45.991671 -35.506866 48.535418 -0.111097 -10.831062 -0.186053 -23.112256 -30.033039 0.851020 23.660303 89.201609 20.578341 0.998485 -25.161931 -0.427656 -0.052632 0.831076 -0.006536 -14.185803 -45.086485 2.394263 177.174381 73.700230 174.744271 -0.833952 -25.983710 0.997644 -0.031894 -0.818838 -0.004263
-32.062653 56.029666 37.008482 -167.704224 -30.155907 -9.192194 -5.576386 14.165619 3.186479 -3.010965 8.076757 1.423109 -3.741337 10.106577 1.715943 -3.010958 8.076724 1.423088 1.902351 18.474263 -4.585181 3.086041 -6.027646 -5.329449 4.273684 -3.359743 -5.080173 3.249997 -18.874579 4.212380 61.428345 -34.205885 -43.183659 9.211056 -0.617630 -21.553239 -10.765547 0.086420 -4.440614 -4.979388 -20.628518 1.548420 -46.083569 -35.545371 48.664829 -0.064948 -10.805345 -0.247487 -23.145340 -30.021213 0.846956 24.266458 89.184467 21.167428 1.006249 -25.164076 -0.430072 -0.062201 0.834891 -0.009240 -14.194216 -45.076209 2.398063 177.172399 73.705563 174.734770 -0.837937 -25.985492 1.004325 -0.031020 -0.823462 -0.006085
-32.068390 56.039654 36.999265 -167.685113 -30.143783 -9.206731 -5.575150 14.116972 3.172408 -3.005494 8.048240 1.413646 -3.734760 10.070834 1.704423 -3.005520 8.048217 1.413621 1.906340 18.483364 -4.575160 3.092814 -6.045341 -5.332208 4.120131 -3.212459 -4.959008 3.087693 -18.942993 4.252328 61.867687 -34.073018 -43.244176 9.257898 -0.426362 -21.434609 -10.802577 0.257617 -4.450823 -4.914052 -20.626888 1.524366 -46.168404 -35.578457 48.803402 -0.018041 -10.779460 -0.307626 -23.204655 -30.011436 0.863691 22.706289 89.185737 19.572509 1.023829 -25.154229 -0.414012 -0.059005 0.823861 -0.016942 -14.217096 -45.070676 2.411561 177.224586 73.712807 174.777364 -0.832075 -25.986028 1.006196 -0.029904 -0.826782 -0.001577
-32.072989 56.049620 36.991252 -167.675085 -30.128749 -9.215759 -5.569012 14.069777 3.154721 -3.004435 8.036369 1.413356 -3.720340 10.028006 1.684550 -2.997954 8.024140 1.404644 1.904782 18.479637 -4.565721 3.091901 -6.077499 -5.335293 3.988050 -3.091228 -4.859246 2.993869 -19.023530 4.273542 62.216904 -33.898218 -43.258808 9.307027 -0.264802 -21.349766 -10.847693 0.407582 -4.461933 -4.885458 -20.635012 1.541990 -46.192643 -35.615077 48.907778 -0.018647 -10.762803 -0.383887 -23.239968 -30.007321 0.876075 20.578431 89.179277 17.425083 1.038829 -25.141659 -0.392135 -0.049987 0.812265 -0.027130 -14.237022 -45.069514 2.432403 177.296961 73.720560 174.833719 -0.822978 -25.983556 1.009588 -0.031923 -0.832318 0.003697
-32.075115 56.059701 36.983557 -167.675206 -30.117200 -9.227350 -5.554555 14.036322 3.150079 -3.011148 8.045194 1.424377 -3.694057 9.967244 1.648922 -3.007309 8.048667 1.423004 1.904577 18.420160 -4.588582 3.079990 -6.096840 -5.322717 3.878089 -3.035589 -4.801606 3.003569 -19.108582 4.262518 62.485310 -33.687249 -43.259937 9.340126 -0.166186 -21.311928 -10.881534 0.486625 -4.494387 -4.818367 -20.616248 1.509494 -46.273719 -35.638255 49.059715 0.030675 -10.733683 -0.440825 -23.269394 -29.997300 0.902777 19.556423 89.172022 16.380224 1.031582 -25.129721 -0.370131 -0.049055 0.808312 -0.032882 -14.259624 -45.062458 2.464096 177.365003 73.727692 174.887764 -0.815838 -25.988736 1.014984 -0.030008 -0.832692 0.002163
-32.075042 56.069015 36.976874 -167.658849 -30.101531 -9.253004 -5.561327 14.017572 3.163571 -2.989583 8.003644 1.396257 -3.682817 9.953292 1.643562 -2.989904 8.007487 1.401740 1.884870 18.469902 -4.537406 3.060499 -6.175537 -5.335988 3.749364 -2.935291 -4.708960 3.092672 -19.188678 4.227630 62.682048 -33.459176 -43.260375 9.353163 -0.132781 -21.336870 -10.947206 0.622295 -4.497981 -4.763330 -20.593573 1.473408 -46.336499 -35.653016 49.210036 0.086097 -10.706413 -0.498235 -23.330298 -29.982695 0.951763 16.424472 89.164567 13.207749 1.045923 -25.122858 -0.347757 -0.054791 0.814526 -0.031908 -14.309859 -45.060169 2.506001 177.449126 73.732652 174.958686 -0.798454 -25.992744 1.012933 -0.030159 -0.833799 0.002645
-32.075859 56.077361 36.970584 -167.652792 -30.093062 -9.263033 -5.546291 13.986847 3.152725 -2.956701 7.952496 1.361509 -3.694415 9.974540 1.666983 -2.972622 7.971553 1.382746 1.864405 18.508310 -4.492369 3.034130 -6.255550 -5.341481 3.642422 -2.854718 -4.633149 3.232109 -19.256239 4.175871 62.807577 -33.245625 -43.266101 9.348070 -0.141824 -21.413333 -11.005661 0.737484 -4.492457 -4.721940 -20.573165 1.432992 -46.369664 -35.663100 49.338555 0.125607 -10.691357 -0.559633 -23.357500 -29.969208 0.975110 15.486724 89.151723 12.248274 1.036495 -25.125478 -0.339237 -0.047197 0.817173 -0.026557 -14.347049 -45.054321 2.534177 177.507222 73.738072 174.999795 -0.785134 -25.994859 1.004399 -0.031073 -0.836524 0.007029
-32.076739 56.084410 36.965011 -167.651272 -30.088127 -9.266396 -5.517818 13.950532 3.126513 -2.962689 7.955236 1.373637 -3.697052 9.978438 1.674090 -2.955765 7.934522 1.362337 1.849269 18.469541 -4.492731 3.002982 -6.285291 -5.311189 3.568774 -2.808844 -4.586086 3.408304 -19.302260 4.105557 62.854544 -33.076144 -43.275693 9.319467 -0.171257 -21.517126 -11.053131 0.823715 -4.508622 -4.674206 -20.557338 1.389761 -46.403328 -35.663172 49.464243 0.165170 -10.683136 -0.621359 -23.338795 -29.957644 0.976912 14.533338 89.140329 11.303194 1.026561 -25.132292 -0.330265 -0.045052 0.826522 -0.020105 -14.374359 -45.047949 2.554916 177.538447 73.742206 175.014291 -0.777162 -25.995720 0.997393 -0.031662 -0.834248 0.001801
